<?xml version="1.0" encoding="UTF-8"?><svg id="Layer_2" xmlns="http://www.w3.org/2000/svg" viewBox="0 0 300.2288 59.3858"><g id="Components"><g id="_x38_5946cdf-23ef-4d18-8cf8-4954681361d3_x40_13"><path d="M39.528,57.6344c-2.6019,1.0008-6.0686,1.7514-9.8568,1.7514s-7.2054-.7507-9.8073-1.7514c.8508-.4501,1.7511-.9006,2.652-1.301,2.2513-1.0005,4.6035-1.8513,7.1553-1.8513s4.9535.8508,7.2048,1.8513c.9003.4004,1.8012.8508,2.652,1.301Z" style="fill:#aadde1;"/><path d="M29.6712,0C13.3096,0,0,13.3093,0,29.721c0,.7003.0495,1.4509.0996,2.1515.1002,1.7511.3506,3.4024.8013,5.0536,1.2509.5503,2.4517.9504,3.6024,1.2509.7.2,1.4011.3002,2.051.3002,1.2509.0999,2.4517,0,3.7026-.3002,1.902-.4505,3.9029-1.301,5.9044-2.3017,2.0015-.9507,4.1527-2.1515,6.3546-3.1523,2.2513-1.0008,4.6035-1.8513,7.1553-1.8513s4.9535.8505,7.2048,1.8513c2.2013,1.0008,4.303,2.2016,6.3546,3.1523,2.0009,1.0008,3.953,1.8513,5.9038,2.3017,1.2509.3002,2.5018.4001,3.7527.3002.6505-.0501,1.3511-.1503,2.0015-.3002,1.1507-.3005,2.3521-.7006,3.603-1.2509.3995-1.6513.7-3.3025.8001-5.0536.0501-.7006.1002-1.4512.1002-2.1515C59.3919,13.3093,46.0824,0,29.6712,0Z" style="fill:#aadde1;"/><path d="M56.4895,42.4238c-.9003,1.9515-2.0009,3.7527-3.352,5.4039-1.3511.1499-2.652.0999-4.0031-.2003-1.9508-.5002-3.9029-1.301-5.9038-2.3014-2.0516-1.0008-4.1533-2.1515-6.3546-3.1523-2.2513-1.0008-4.6529-1.8513-7.2048-1.8513s-4.904.8505-7.1553,1.8513c-2.2019,1.0008-4.3531,2.1515-6.3546,3.1523-2.0015,1.0005-4.0025,1.8012-5.9044,2.3014-1.3511.3002-2.652.3503-4.0025.2003-1.3511-1.6513-2.5018-3.4525-3.4027-5.4039.5509.1499,1.1006.3002,1.6516.4501,1.9008.4505,3.8027.4505,5.7536,0,1.902-.4501,3.9029-1.2509,5.9044-2.2513,2.0015-1.0008,4.1527-2.2016,6.3546-3.1523,2.2513-1.0008,4.6035-1.8513,7.1553-1.8513s4.9535.8505,7.2048,1.8513c2.2013.9507,4.303,2.1515,6.3546,3.1523,2.0009,1.0005,3.953,1.8012,5.9038,2.2513,1.9014.4505,3.8027.4505,5.7542,0,.5002-.0999,1.0512-.2501,1.6009-.4501Z" style="fill:#aadde1;"/><path d="M48.9341,52.2806c-1.3511,1.2011-2.8517,2.2517-4.4526,3.1022-.4007-.2-.8508-.4001-1.2509-.6004-2.0516-1.0005-4.1533-2.1515-6.3546-3.1523-2.2513-1.0005-4.6529-1.8513-7.2048-1.8513s-4.904.8508-7.1553,1.8513c-2.2019,1.0008-4.3531,2.1518-6.3546,3.1523-.4001.2003-.8508.4004-1.2509.6004-1.6009-.8505-3.1022-1.9011-4.4532-3.1022,1.8513-.4501,3.7527-1.3007,5.7041-2.2016,2.0015-1.0005,4.1527-2.2016,6.3546-3.202,2.2513-1.0008,4.6035-1.8513,7.1553-1.8513s4.9535.8505,7.2048,1.8513c2.2013,1.0005,4.303,2.2016,6.3546,3.202,1.9508.9009,3.8027,1.7514,5.7035,2.2016Z" style="fill:#aadde1;"/><path d="M94.1001,18.4075c6.988,0,12.6731,5.6851,12.6731,12.673s-5.6851,12.673-12.6731,12.673-12.6731-5.6851-12.6731-12.673,5.6851-12.673,12.6731-12.673M94.1001,16.2338c-8.1864,0-14.8467,6.6602-14.8467,14.8467s6.6603,14.8467,14.8467,14.8467,14.8467-6.6602,14.8467-14.8467-6.6601-14.8467-14.8467-14.8467h0Z" style="fill:#aadde1;"/><path d="M116.1244,31.057c0-7.3262,5.796-13.0554,13.4385-13.0554,3.8869,0,7.4747,1.4398,10.2597,4.1925l-1.7476,1.4076c-2.389-2.3072-5.3375-3.4414-8.5164-3.4414-6.334,0-11.1593,4.6919-11.1593,10.8946,0,6.2522,4.8253,10.9441,11.1593,10.9441,3.3338,0,6.1661-1.1278,8.6304-3.4672l1.7605,1.3559c-2.912,2.8323-6.3383,4.2636-10.3867,4.2636-7.6684,0-13.4385-5.7163-13.4385-13.0942Z" style="fill:#aadde1;"/><path d="M148.5531,18.3567h19.6456v2.0791h-17.3664v8.5573l12.9478.0086v2.0489h-12.9478v10.6363h17.3771v2.1092h-19.6563v-25.4394Z" style="fill:#aadde1;"/><path d="M200.8103,38.539l-1.1902-2.2699-9.2518-17.4618c-.3126-.5901-1.1569-.5931-1.4738-.0054l-9.4177,17.4672-1.2122,2.248-2.8872,5.3334h2.5563l2.8651-5.3995.0183-.0087c.8801.1887,1.7841.5798,2.7366,1.0446.8819.4407,1.8073.9477,2.799,1.3885.9916.4407,2.0279.8154,3.1514.8154s2.1598-.3748,3.1519-.8154c.9916-.4408,1.9171-.9478,2.799-1.3885.9792-.4778,1.9065-.8778,2.8389-1.06l.0042.002,2.8426,5.4216h2.4907l-2.821-5.3114ZM195.455,37.3931c-.8819.4408-1.8073.9697-2.799,1.3885-.9922.4408-2.0279.8154-3.1519.8154s-2.1598-.3746-3.1514-.8154c-.9916-.4187-1.9171-.9477-2.799-1.3885-.6172-.2865-1.2338-.551-1.8073-.7494l7.868-14.8321,7.7357,14.7881c-.6172.2203-1.2558.4848-1.895.7934Z" style="fill:#aadde1;"/><path d="M210.8017,18.3653h2.318l18.4597,22.2455v-22.2541h2.2771v25.4415h-2.3309l-18.4339-22.196v22.196h-2.29v-25.4329Z" style="fill:#aadde1;"/><path d="M274.9917,22.8333v20.9584h-2.2792v-25.4329h2.2835l11.4563,21.5783,11.5446-21.5804h2.2319v25.4329h-2.2771v-20.9348l-11.0874,20.7047c-.166.31-.6105.31-.7764,0l-11.0961-20.7262Z" style="fill:#aadde1;"/><path d="M241.8109,31.8103v-13.4536h2.318v13.4536c0,6.56,2.9808,10.1155,9.1427,10.1155,6.1748,0,9.1448-3.5555,9.1448-10.1047v-13.4644h2.3416v13.4644c0,7.7007-3.8719,12.2483-11.4865,12.2483-7.6254,0-11.4606-4.5089-11.4606-12.2591Z" style="fill:#aadde1;"/></g></g></svg>